<?xml version="1.0" encoding="UTF-8" standalone="no"?>
<!DOCTYPE svg PUBLIC "-//W3C//DTD SVG 1.1//EN" "http://www.w3.org/Graphics/SVG/1.1/DTD/svg11.dtd">
<svg width="100%" height="100%" viewBox="0 0 452 635" version="1.1" xmlns="http://www.w3.org/2000/svg" xmlns:xlink="http://www.w3.org/1999/xlink" xml:space="preserve" xmlns:serif="http://www.serif.com/" style="fill-rule:evenodd;clip-rule:evenodd;stroke-linecap:round;stroke-linejoin:round;stroke-miterlimit:1.5;">
    <rect id="Original" x="0" y="-0" width="452" height="635" style="fill:none;"/>
    <path d="M221.586,11.929C217.78,14.513 233.224,-0.54 242.5,4C250.742,8.034 253.428,29.653 253.428,29.653C253.428,29.653 256.521,70.434 307.66,147.435C317.934,162.905 325.379,181.492 330.224,201.499C331.315,200.463 332.535,199.539 333.874,198.753C341.427,194.318 350.988,195.314 357.465,201.211C357.465,201.211 429.951,264.982 424.892,424.333C423.469,469.168 408.955,508.326 390.067,537.339C384.535,545.838 363.758,574.415 358.275,570.581C354.802,572.826 351.689,574.447 349.9,574.577C344.597,574.963 340.359,578.221 336.343,574.737L322.257,563.957C293.861,599.909 249.885,623 200.559,623C163.639,623 129.716,610.064 103.081,588.48C92.855,584.525 82.114,579.17 73.026,572.019C63.406,564.451 32.472,530.626 17.293,486.24C-4.95,421.192 -7.892,332.443 68.262,260.465C146.731,186.299 136.841,141.739 136.841,141.739C134.503,133.935 137.133,125.493 143.489,120.396C149.845,115.3 158.657,114.568 165.766,118.547C165.766,118.547 176.951,124.075 187.764,139.663C185.61,128.885 183.663,118.364 182.666,108.39C180.968,91.41 181.975,75.756 187.255,62.283C200.863,27.566 219.286,13.576 221.586,11.929C221.659,11.879 221.738,11.824 221.825,11.761C221.825,11.761 221.743,11.816 221.586,11.929ZM54.379,520.629C54.722,521.241 55.065,521.848 55.408,522.45C49.097,505.654 45.62,487.476 45.56,468.5C45.83,383.183 115.179,314 200.559,314C286.106,314 355.559,383.453 355.559,469C355.559,484.059 353.407,498.619 349.394,512.39L364.372,521.577C380.018,495.797 391.686,462.017 392.902,423.699C397.6,275.726 332,216 332,216C332,216 349.622,291.414 299.416,316.304C310.914,265.258 306.354,199.687 279,158.5C216.951,65.072 221.5,28 221.5,28C221.5,28 205.731,39.337 193.876,69.582C172.811,123.326 245.794,221.419 168.31,270.093C193.675,163.796 144,136 144,136C144,136 160.122,189.82 70,275C-45.061,383.751 40.229,535 71,558C72.361,559.017 73.68,559.608 74.961,559.802C66.34,547.903 59.367,534.733 54.379,520.629Z" style="fill:#fff;"/>
    <path d="M349.394,512.39C353.407,498.619 355.559,484.059 355.559,469C355.559,383.453 286.106,314 200.559,314C115.012,314 45.559,383.453 45.559,469C45.559,502.902 56.467,534.276 74.961,559.802C73.68,559.608 72.361,559.017 71,558C40.229,535 -45.061,383.751 70,275C160.122,189.82 144,136 144,136C144,136 193.675,163.796 168.31,270.093C245.794,221.419 172.811,123.326 193.876,69.582C205.731,39.337 221.5,28 221.5,28C221.5,28 216.951,65.072 279,158.5C306.354,199.687 310.914,265.258 299.416,316.304C349.622,291.414 332,216 332,216C332,216 397.6,275.726 392.902,423.699C391.686,462.017 380.018,495.797 364.372,521.577L349.394,512.39Z" style="fill:#d7251c;stroke:#f00;stroke-width:1px;"/>
    <path d="M301.662,552.286C282.398,575.237 255.16,591.682 223.306,596.935C152.513,608.61 85.56,560.613 73.886,489.82C62.211,419.027 110.208,352.074 181.001,340.4C251.794,328.726 318.746,376.722 330.421,447.515C334.41,471.707 331.431,495.451 322.956,516.693L437.715,587.087C443.419,590.586 447.462,596.245 448.924,602.775C450.385,609.305 449.139,616.148 445.471,621.744L445.469,621.748C441.801,627.344 436.022,631.216 429.452,632.481C422.881,633.745 416.078,632.295 410.595,628.461L301.662,552.286ZM186.696,374.934C134.962,383.465 99.888,432.392 108.419,484.125C116.95,535.858 165.878,570.933 217.611,562.402C269.344,553.87 304.418,504.943 295.887,453.21C287.356,401.477 238.429,366.402 186.696,374.934Z" style="fill:#181715;"/>
    <circle cx="183.5" cy="447.5" r="17.5" style="fill:#181715;"/>
    <circle cx="250.5" cy="447.5" r="17.5" style="fill:#181715;"/>
    <path d="M154.671,498.327C152.8,494.327 154.529,489.562 158.529,487.691C162.528,485.821 167.294,487.55 169.164,491.549C176.781,507.838 203.591,521.158 224.741,503.545C228.134,500.72 233.183,501.181 236.008,504.573C238.834,507.966 238.373,513.015 234.98,515.84C204.403,541.303 165.682,521.875 154.671,498.327Z"/>
</svg>
