<?xml version="1.0" encoding="UTF-8" standalone="no"?>
<!DOCTYPE svg PUBLIC "-//W3C//DTD SVG 1.1//EN" "http://www.w3.org/Graphics/SVG/1.1/DTD/svg11.dtd">
<svg width="100%" height="100%" viewBox="0 0 50 50" version="1.1" xmlns="http://www.w3.org/2000/svg" xmlns:xlink="http://www.w3.org/1999/xlink" xml:space="preserve" xmlns:serif="http://www.serif.com/" style="fill-rule:evenodd;clip-rule:evenodd;stroke-linejoin:round;stroke-miterlimit:2;">
    <rect id="search" x="0" y="0" width="50" height="50" style="fill:none;"/>
    <clipPath id="_clip1">
        <rect x="0" y="0" width="50" height="50"/>
    </clipPath>
    <g clip-path="url(#_clip1)">
        <circle cx="25" cy="25" r="25" style="fill:#e68d89;"/>
        <path d="M33.376,20.186C33.376,22.875 32.503,25.359 31.032,27.374L38.451,34.797C39.183,35.529 39.183,36.718 38.451,37.451C37.718,38.183 36.529,38.183 35.796,37.451L28.378,30.028C26.362,31.499 23.878,32.371 21.188,32.371C14.455,32.371 9,26.917 9,20.186C9,13.454 14.455,8 21.188,8C27.921,8 33.376,13.454 33.376,20.186ZM21.188,28.622C25.847,28.622 29.626,24.843 29.626,20.186C29.626,15.528 25.847,11.75 21.188,11.75C16.53,11.75 12.75,15.528 12.75,20.186C12.75,24.843 16.53,28.622 21.188,28.622Z" style="fill:#fff;fill-rule:nonzero;"/>
    </g>
</svg>
