<?xml version="1.0" encoding="UTF-8" standalone="no"?>
<!DOCTYPE svg PUBLIC "-//W3C//DTD SVG 1.1//EN" "http://www.w3.org/Graphics/SVG/1.1/DTD/svg11.dtd">
<svg width="100%" height="100%" viewBox="0 0 80 144" version="1.1" xmlns="http://www.w3.org/2000/svg" xmlns:xlink="http://www.w3.org/1999/xlink" xml:space="preserve" xmlns:serif="http://www.serif.com/" style="fill-rule:evenodd;clip-rule:evenodd;stroke-linejoin:round;stroke-miterlimit:2;">
    <rect id="Artboard7" x="0" y="0" width="80" height="144" style="fill:none;"/>
    <clipPath id="_clip1">
        <rect x="0" y="0" width="80" height="144"/>
    </clipPath>
    <g clip-path="url(#_clip1)">
        <g>
            <path d="M-0,88.201L-0,80.356L0.036,80.356C0.403,72.351 3.674,64.062 12.239,57.161C31.137,41.931 27.756,32.309 27.756,32.309C27.756,32.309 38.173,37.279 32.854,56.283C49.102,47.581 33.797,30.043 38.215,20.434C40.701,15.027 44.007,13 44.007,13C44.007,13 43.054,19.628 56.065,36.332C61.801,43.696 62.757,55.419 60.346,64.545C70.874,60.095 67.179,46.612 67.179,46.612C67.179,46.612 80,56.565 80,81.059C80,81.936 79.984,82.832 79.95,83.746L79.949,83.767L80,83.767L80,88.201C73.698,74.623 58.155,65.009 40,65.009C21.845,65.009 6.302,74.623 -0,88.201Z" style="fill:#d7251c;"/>
            <path d="M0,104L-0,88.201C6.302,72.276 21.845,61 40,61C58.155,61 73.698,72.276 80,88.201L80,104C80,81.923 62.077,64 40,64C17.923,64 0,81.923 0,104Z" style="fill:#fff;"/>
            <circle cx="40" cy="104" r="40" style="fill:#d7251c;"/>
            <path d="M24.813,79C25.672,79 26.375,79.703 26.375,80.562L26.375,86.969C29.94,87.691 32.625,90.846 32.625,94.625C32.625,98.404 29.94,101.559 26.375,102.281L26.375,127.438C26.375,128.297 25.672,129 24.813,129C23.953,129 23.25,128.297 23.25,127.438L23.25,102.281C19.686,101.559 17,98.404 17,94.625C17,90.846 19.686,87.691 23.25,86.969L23.25,80.562C23.25,79.703 23.953,79 24.813,79ZM24.813,99.312C27.4,99.312 29.5,97.213 29.5,94.625C29.5,92.037 27.4,89.937 24.813,89.937C22.225,89.937 20.125,92.037 20.125,94.625C20.125,97.213 22.225,99.312 24.813,99.312ZM40.438,118.062C43.025,118.062 45.125,115.963 45.125,113.375C45.125,110.787 43.025,108.688 40.438,108.688C37.85,108.688 35.75,110.787 35.75,113.375C35.75,115.963 37.85,118.062 40.438,118.062ZM48.25,113.375C48.25,117.154 45.565,120.309 42,121.031L42,127.438C42,128.297 41.297,129 40.438,129C39.578,129 38.875,128.297 38.875,127.438L38.875,121.031C35.311,120.309 32.625,117.154 32.625,113.375C32.625,109.596 35.311,106.441 38.875,105.719L38.875,80.562C38.875,79.703 39.578,79 40.438,79C41.297,79 42,79.703 42,80.562L42,105.719C45.565,106.441 48.25,109.596 48.25,113.375ZM60.75,97.75C60.75,95.162 58.65,93.062 56.063,93.062C53.475,93.062 51.375,95.162 51.375,97.75C51.375,100.338 53.475,102.438 56.063,102.438C58.65,102.438 60.75,100.338 60.75,97.75ZM57.625,105.406L57.625,127.438C57.625,128.297 56.922,129 56.063,129C55.203,129 54.5,128.297 54.5,127.438L54.5,105.406C50.936,104.684 48.25,101.529 48.25,97.75C48.25,93.971 50.936,90.816 54.5,90.094L54.5,80.562C54.5,79.703 55.203,79 56.063,79C56.922,79 57.625,79.703 57.625,80.562L57.625,90.094C61.19,90.816 63.875,93.971 63.875,97.75C63.875,101.529 61.19,104.684 57.625,105.406Z" style="fill:#fff;fill-rule:nonzero;"/>
        </g>
    </g>
</svg>
