<?xml version="1.0" encoding="UTF-8" standalone="no"?>
<!DOCTYPE svg PUBLIC "-//W3C//DTD SVG 1.1//EN" "http://www.w3.org/Graphics/SVG/1.1/DTD/svg11.dtd">
<svg width="100%" height="100%" viewBox="0 0 2580 503" version="1.1" xmlns="http://www.w3.org/2000/svg" xmlns:xlink="http://www.w3.org/1999/xlink" xml:space="preserve" xmlns:serif="http://www.serif.com/" style="fill-rule:evenodd;clip-rule:evenodd;stroke-linejoin:round;stroke-miterlimit:2;">
    <rect id="Schrift-KI-pedia" serif:id="Schrift KI-pedia" x="0" y="-0" width="2579.8" height="502.3" style="fill:none;"/>
    <clipPath id="_clip1">
        <rect x="0" y="-0" width="2579.8" height="502.3"/>
    </clipPath>
    <g clip-path="url(#_clip1)">
        <g>
            <g>
                <path d="M148.359,52.066L148.359,167.144L238.594,52.066L390.703,52.066L269.766,209.8L409.453,426.362L238.594,426.362L160.312,293.941L151.641,309.175L151.641,426.362L-0,426.362L-0,52.066L148.359,52.066Z" style="fill:#fff;fill-rule:nonzero;"/>
                <rect x="458.437" y="52.066" width="145.781" height="374.297" style="fill:#fff;fill-rule:nonzero;"/>
                <rect x="661.406" y="212.847" width="179.062" height="101.25" style="fill:#fff;fill-rule:nonzero;"/>
                <path d="M1117.97,124.019C1144.22,124.019 1166.13,129.331 1183.71,139.956C1201.29,150.581 1214.49,164.761 1223.32,182.495C1232.15,200.23 1236.56,219.956 1236.56,241.675C1236.56,256.675 1234.38,272.534 1230,289.253C1225.62,305.972 1218.63,322.339 1209.02,338.355C1199.41,354.37 1186.8,368.902 1171.17,381.948C1155.55,394.995 1136.64,405.503 1114.45,413.472C1092.27,421.441 1066.25,425.737 1036.41,426.362L1036.41,502.3L897.187,502.3L897.187,135.034L974.062,135.034L1006.64,180.034C1025.39,159.878 1044.57,145.503 1064.18,136.909C1083.79,128.316 1101.72,124.019 1117.97,124.019ZM1094.53,220.816C1087.66,220.816 1080.47,223.511 1072.97,228.902C1065.47,234.292 1058.52,241.245 1052.11,249.761C1045.7,258.277 1040.47,267.222 1036.41,276.597L1036.41,343.862C1040.47,341.05 1047.03,336.753 1056.09,330.972C1065.16,325.191 1074.69,318.042 1084.69,309.527C1094.69,301.011 1103.2,291.284 1110.23,280.347C1117.27,269.409 1120.78,257.456 1120.78,244.487C1120.78,238.081 1118.71,232.534 1114.57,227.847C1110.43,223.159 1103.75,220.816 1094.53,220.816Z" style="fill:#fff;fill-rule:nonzero;"/>
                <path d="M1411.64,435.034C1392.73,435.034 1374.3,432.066 1356.33,426.128C1338.36,420.191 1322.11,411.323 1307.58,399.527C1293.05,387.73 1281.48,373.159 1272.89,355.816C1264.3,338.472 1260,318.316 1260,295.347C1260,266.753 1265.12,241.714 1275.35,220.23C1285.59,198.745 1299.45,180.855 1316.95,166.558C1334.45,152.261 1354.3,141.519 1376.48,134.331C1398.67,127.144 1421.72,123.55 1445.62,123.55C1475.94,123.55 1500.59,128.159 1519.57,137.378C1538.56,146.597 1552.5,158.472 1561.41,173.003C1570.31,187.534 1574.77,202.847 1574.77,218.941C1574.77,236.284 1569.22,253.081 1558.12,269.331C1547.03,285.581 1530.74,298.941 1509.26,309.409C1487.77,319.878 1461.33,325.112 1429.92,325.112C1426.95,325.112 1423.01,325.073 1418.09,324.995C1413.16,324.917 1408.91,324.8 1405.31,324.644C1405.31,334.487 1407.66,341.597 1412.34,345.972C1417.03,350.347 1422.93,353.081 1430.04,354.175C1437.15,355.269 1444.3,355.816 1451.48,355.816C1457.89,355.816 1466.91,354.761 1478.56,352.652C1490.19,350.542 1502.81,346.675 1516.41,341.05C1530,335.425 1542.89,327.378 1555.08,316.909L1569.61,389.8C1551.17,405.737 1527.85,417.261 1499.65,424.37C1471.44,431.48 1442.11,435.034 1411.64,435.034ZM1405.31,271.206L1456.64,259.722L1461.09,223.862C1461.09,222.925 1461.17,222.027 1461.33,221.167C1461.48,220.308 1461.56,219.409 1461.56,218.472C1461.56,204.722 1455.16,197.847 1442.34,197.847C1431.25,198.784 1423.52,202.573 1419.14,209.214C1414.77,215.855 1411.95,224.527 1410.7,235.23C1409.45,245.933 1407.66,257.925 1405.31,271.206Z" style="fill:#fff;fill-rule:nonzero;"/>
                <path d="M1609.22,295.347C1609.22,265.816 1614.14,240.308 1623.98,218.823C1633.83,197.339 1647.07,179.605 1663.71,165.62C1680.35,151.636 1698.87,141.284 1719.26,134.566C1739.65,127.847 1760.39,124.487 1781.48,124.487C1792.58,124.487 1803.56,125.23 1814.41,126.714C1825.27,128.198 1835.7,130.503 1845.7,133.628L1845.7,31.909L1982.11,31.909L1982.11,426.362L1895.16,426.362L1861.64,377.847C1846.95,397.222 1829.73,411.519 1809.96,420.737C1790.19,429.956 1769.84,434.566 1748.91,434.566C1731.25,434.566 1714.1,431.441 1697.46,425.191C1680.82,418.941 1665.86,409.8 1652.58,397.769C1639.3,385.737 1628.75,371.128 1620.94,353.941C1613.12,336.753 1609.22,317.222 1609.22,295.347ZM1777.73,337.534C1787.58,337.534 1796.8,335.737 1805.39,332.144C1813.98,328.55 1821.72,324.331 1828.59,319.487C1835.47,314.644 1841.17,310.425 1845.7,306.831L1845.7,223.394C1840.39,220.112 1834.38,218.472 1827.66,218.472C1819.06,218.472 1810.47,221.089 1801.88,226.323C1793.28,231.558 1785.39,238.511 1778.2,247.183C1771.02,255.855 1765.27,265.269 1760.98,275.425C1756.68,285.581 1754.53,295.581 1754.53,305.425C1754.53,312.769 1756.29,319.956 1759.81,326.987C1763.32,334.019 1769.3,337.534 1777.73,337.534Z" style="fill:#fff;fill-rule:nonzero;"/>
                <path d="M2113.59,0.034C2135.78,0.034 2152.15,5.034 2162.7,15.034C2173.24,25.034 2178.52,36.519 2178.52,49.487C2178.52,59.175 2175.51,68.745 2169.49,78.198C2163.48,87.652 2154.69,95.464 2143.12,101.636C2131.56,107.808 2117.42,110.894 2100.7,110.894C2076.64,110.894 2059.73,106.011 2049.96,96.245C2040.19,86.48 2035.31,75.425 2035.31,63.081C2035.31,53.081 2038.2,43.277 2043.98,33.667C2049.77,24.058 2058.48,16.05 2070.12,9.644C2081.76,3.237 2096.25,0.034 2113.59,0.034ZM2174.53,426.362L2038.83,426.362L2038.83,135.034L2174.53,135.034L2174.53,426.362Z" style="fill:#fff;fill-rule:nonzero;"/>
                <path d="M2222.58,293.941C2222.58,268.316 2226.91,245.112 2235.59,224.331C2244.26,203.55 2256.09,185.659 2271.09,170.659C2286.09,155.659 2303.12,144.136 2322.19,136.089C2341.25,128.042 2361.17,124.019 2381.95,124.019C2398.67,124.019 2415.04,128.12 2431.05,136.323C2447.07,144.527 2459.84,156.05 2469.38,170.894L2502.89,135.034L2579.77,135.034L2579.77,426.362L2502.89,426.362L2469.38,377.847C2457.34,395.659 2441.17,409.644 2420.86,419.8C2400.55,429.956 2379.61,435.034 2358.05,435.034C2334.3,435.034 2312.11,429.917 2291.48,419.683C2270.86,409.448 2254.22,393.902 2241.56,373.042C2228.91,352.183 2222.58,325.816 2222.58,293.941ZM2362.27,305.425C2362.27,313.081 2364.06,320.347 2367.66,327.222C2371.25,334.097 2377.11,337.534 2385.23,337.534C2393.05,337.534 2403.05,335.152 2415.23,330.386C2427.42,325.62 2440.16,317.612 2453.44,306.362L2453.44,223.394C2447.97,220.112 2441.8,218.472 2434.92,218.472C2426.02,218.472 2417.27,221.167 2408.67,226.558C2400.08,231.948 2392.3,238.98 2385.35,247.652C2378.4,256.323 2372.81,265.737 2368.59,275.894C2364.38,286.05 2362.27,295.894 2362.27,305.425Z" style="fill:#fff;fill-rule:nonzero;"/>
            </g>
        </g>
    </g>
</svg>
