<?xml version="1.0" encoding="UTF-8" standalone="no"?>
<!DOCTYPE svg PUBLIC "-//W3C//DTD SVG 1.1//EN" "http://www.w3.org/Graphics/SVG/1.1/DTD/svg11.dtd">
<svg width="100%" height="100%" viewBox="0 0 3430 503" version="1.1" xmlns="http://www.w3.org/2000/svg" xmlns:xlink="http://www.w3.org/1999/xlink" xml:space="preserve" xmlns:serif="http://www.serif.com/" style="fill-rule:evenodd;clip-rule:evenodd;stroke-linejoin:round;stroke-miterlimit:2;">
    <rect id="Schrift-Wikiped-IA" serif:id="Schrift Wikiped-IA" x="0" y="-0" width="3429.1" height="502.3" style="fill:none;"/>
    <clipPath id="_clip1">
        <rect x="0" y="-0" width="3429.1" height="502.3"/>
    </clipPath>
    <g clip-path="url(#_clip1)">
        <g>
            <g>
                <path d="M168.047,52.066L210.937,185.425L304.453,60.034C307.578,55.816 310,53.081 311.719,51.831C313.437,50.581 315.312,49.956 317.344,49.956C319.375,49.956 321.328,50.542 323.203,51.714C325.078,52.886 327.5,55.659 330.469,60.034L417.656,184.019L459.844,52.066L593.906,52.066L471.562,416.753C469.062,424.409 465.273,430.23 460.195,434.214C455.117,438.198 449.609,440.191 443.672,440.191C431.484,440.191 420.469,433.003 410.625,418.628L305.859,267.456L193.125,419.097C188.437,425.347 183.242,430.269 177.539,433.862C171.836,437.456 166.094,439.253 160.312,439.253C154.531,439.253 149.102,437.417 144.023,433.745C138.945,430.073 134.844,424.097 131.719,415.816L-0,52.066L168.047,52.066Z" style="fill:#fff;fill-rule:nonzero;"/>
                <path d="M712.734,0.034C734.922,0.034 751.289,5.034 761.836,15.034C772.383,25.034 777.656,36.519 777.656,49.487C777.656,59.175 774.648,68.745 768.633,78.198C762.617,87.652 753.828,95.464 742.266,101.636C730.703,107.808 716.562,110.894 699.844,110.894C675.781,110.894 658.867,106.011 649.102,96.245C639.336,86.48 634.453,75.425 634.453,63.081C634.453,53.081 637.344,43.277 643.125,33.667C648.906,24.058 657.617,16.05 669.258,9.644C680.898,3.237 695.391,0.034 712.734,0.034ZM773.672,426.362L637.969,426.362L637.969,135.034L773.672,135.034L773.672,426.362Z" style="fill:#fff;fill-rule:nonzero;"/>
                <path d="M952.266,31.909L952.266,221.987L1007.58,135.034L1145.62,135.034L1055.86,262.3L1160.16,426.362L1017.19,426.362L958.594,331.909C957.969,333.003 957.227,334.292 956.367,335.777C955.508,337.261 954.922,338.628 954.609,339.878L954.609,426.362L830.859,426.362L830.859,31.909L952.266,31.909Z" style="fill:#fff;fill-rule:nonzero;"/>
                <path d="M1267.03,0.034C1289.22,0.034 1305.59,5.034 1316.13,15.034C1326.68,25.034 1331.95,36.519 1331.95,49.487C1331.95,59.175 1328.94,68.745 1322.93,78.198C1316.91,87.652 1308.12,95.464 1296.56,101.636C1285,107.808 1270.86,110.894 1254.14,110.894C1230.08,110.894 1213.16,106.011 1203.4,96.245C1193.63,86.48 1188.75,75.425 1188.75,63.081C1188.75,53.081 1191.64,43.277 1197.42,33.667C1203.2,24.058 1211.91,16.05 1223.56,9.644C1235.19,3.237 1249.69,0.034 1267.03,0.034ZM1327.97,426.362L1192.27,426.362L1192.27,135.034L1327.97,135.034L1327.97,426.362Z" style="fill:#fff;fill-rule:nonzero;"/>
                <path d="M1605.47,124.019C1631.72,124.019 1653.63,129.331 1671.21,139.956C1688.79,150.581 1701.99,164.761 1710.82,182.495C1719.65,200.23 1724.06,219.956 1724.06,241.675C1724.06,256.675 1721.88,272.534 1717.5,289.253C1713.12,305.972 1706.13,322.339 1696.52,338.355C1686.91,354.37 1674.3,368.902 1658.67,381.948C1643.05,394.995 1624.14,405.503 1601.95,413.472C1579.77,421.441 1553.75,425.737 1523.91,426.362L1523.91,502.3L1384.69,502.3L1384.69,135.034L1461.56,135.034L1494.14,180.034C1512.89,159.878 1532.07,145.503 1551.68,136.909C1571.29,128.316 1589.22,124.019 1605.47,124.019ZM1582.03,220.816C1575.16,220.816 1567.97,223.511 1560.47,228.902C1552.97,234.292 1546.02,241.245 1539.61,249.761C1533.2,258.277 1527.97,267.222 1523.91,276.597L1523.91,343.862C1527.97,341.05 1534.53,336.753 1543.59,330.972C1552.66,325.191 1562.19,318.042 1572.19,309.527C1582.19,301.011 1590.7,291.284 1597.73,280.347C1604.77,269.409 1608.28,257.456 1608.28,244.487C1608.28,238.081 1606.21,232.534 1602.07,227.847C1597.93,223.159 1591.25,220.816 1582.03,220.816Z" style="fill:#fff;fill-rule:nonzero;"/>
                <path d="M1899.14,435.034C1880.23,435.034 1861.8,432.066 1843.83,426.128C1825.86,420.191 1809.61,411.323 1795.08,399.527C1780.55,387.73 1768.98,373.159 1760.39,355.816C1751.8,338.472 1747.5,318.316 1747.5,295.347C1747.5,266.753 1752.62,241.714 1762.85,220.23C1773.09,198.745 1786.95,180.855 1804.45,166.558C1821.95,152.261 1841.8,141.519 1863.98,134.331C1886.17,127.144 1909.22,123.55 1933.12,123.55C1963.44,123.55 1988.09,128.159 2007.07,137.378C2026.06,146.597 2040,158.472 2048.91,173.003C2057.81,187.534 2062.27,202.847 2062.27,218.941C2062.27,236.284 2056.72,253.081 2045.62,269.331C2034.53,285.581 2018.24,298.941 1996.76,309.409C1975.27,319.878 1948.83,325.112 1917.42,325.112C1914.45,325.112 1910.51,325.073 1905.59,324.995C1900.66,324.917 1896.41,324.8 1892.81,324.644C1892.81,334.487 1895.16,341.597 1899.84,345.972C1904.53,350.347 1910.43,353.081 1917.54,354.175C1924.65,355.269 1931.8,355.816 1938.98,355.816C1945.39,355.816 1954.41,354.761 1966.06,352.652C1977.69,350.542 1990.31,346.675 2003.91,341.05C2017.5,335.425 2030.39,327.378 2042.58,316.909L2057.11,389.8C2038.67,405.737 2015.35,417.261 1987.15,424.37C1958.94,431.48 1929.61,435.034 1899.14,435.034ZM1892.81,271.206L1944.14,259.722L1948.59,223.862C1948.59,222.925 1948.67,222.027 1948.83,221.167C1948.98,220.308 1949.06,219.409 1949.06,218.472C1949.06,204.722 1942.66,197.847 1929.84,197.847C1918.75,198.784 1911.02,202.573 1906.64,209.214C1902.27,215.855 1899.45,224.527 1898.2,235.23C1896.95,245.933 1895.16,257.925 1892.81,271.206Z" style="fill:#fff;fill-rule:nonzero;"/>
                <path d="M2096.72,295.347C2096.72,265.816 2101.64,240.308 2111.48,218.823C2121.33,197.339 2134.57,179.605 2151.21,165.62C2167.85,151.636 2186.37,141.284 2206.76,134.566C2227.15,127.847 2247.89,124.487 2268.98,124.487C2280.08,124.487 2291.05,125.23 2301.91,126.714C2312.77,128.198 2323.2,130.503 2333.2,133.628L2333.2,31.909L2469.61,31.909L2469.61,426.362L2382.66,426.362L2349.14,377.847C2334.45,397.222 2317.23,411.519 2297.46,420.737C2277.7,429.956 2257.34,434.566 2236.41,434.566C2218.75,434.566 2201.6,431.441 2184.96,425.191C2168.32,418.941 2153.36,409.8 2140.08,397.769C2126.8,385.737 2116.25,371.128 2108.44,353.941C2100.62,336.753 2096.72,317.222 2096.72,295.347ZM2265.23,337.534C2275.08,337.534 2284.3,335.737 2292.89,332.144C2301.48,328.55 2309.22,324.331 2316.09,319.487C2322.97,314.644 2328.67,310.425 2333.2,306.831L2333.2,223.394C2327.89,220.112 2321.88,218.472 2315.16,218.472C2306.56,218.472 2297.97,221.089 2289.38,226.323C2280.78,231.558 2272.89,238.511 2265.7,247.183C2258.52,255.855 2252.77,265.269 2248.48,275.425C2244.18,285.581 2242.03,295.581 2242.03,305.425C2242.03,312.769 2243.79,319.956 2247.3,326.987C2250.82,334.019 2256.8,337.534 2265.23,337.534Z" style="fill:#fff;fill-rule:nonzero;"/>
                <rect x="2526.8" y="212.847" width="179.063" height="101.25" style="fill:#fff;fill-rule:nonzero;"/>
                <rect x="2763.05" y="52.066" width="145.781" height="374.297" style="fill:#fff;fill-rule:nonzero;"/>
                <path d="M2944.92,426.362L3131.02,71.05C3135.55,62.456 3142.58,55.777 3152.11,51.011C3161.64,46.245 3171.56,43.862 3181.88,43.862C3191.09,43.862 3200.12,45.972 3208.95,50.191C3217.77,54.409 3224.61,60.894 3229.45,69.644L3429.14,426.362L3239.06,426.362L3224.3,389.331L3123.05,389.331L3110.39,426.362L2944.92,426.362ZM3134.53,315.034L3210.23,315.034L3174.38,213.784L3134.53,315.034Z" style="fill:#fff;fill-rule:nonzero;"/>
            </g>
        </g>
    </g>
</svg>
