<?xml version="1.0" encoding="UTF-8" standalone="no"?><!DOCTYPE svg PUBLIC "-//W3C//DTD SVG 1.1//EN" "http://www.w3.org/Graphics/SVG/1.1/DTD/svg11.dtd"><svg width="100%" height="100%" viewBox="0 0 6984 1537" version="1.1" xmlns="http://www.w3.org/2000/svg" xmlns:xlink="http://www.w3.org/1999/xlink" xml:space="preserve" xmlns:serif="http://www.serif.com/" style="fill-rule:evenodd;clip-rule:evenodd;stroke-linejoin:round;stroke-miterlimit:2;"><g><path d="M30.252,1200.01l0,-833.622l211.767,0l0,833.622l-211.767,0Zm105.884,-931.102c-38.096,0 -70.309,-12.325 -96.64,-36.975c-26.331,-24.65 -39.496,-57.143 -39.496,-97.48c-0,-40.336 13.165,-72.83 39.496,-97.48c26.331,-24.65 58.544,-36.975 96.64,-36.975c39.216,0 71.709,12.325 97.48,36.975c25.77,24.65 38.656,57.144 38.656,97.48c-0,40.337 -12.886,72.83 -38.656,97.48c-25.771,24.65 -58.264,36.975 -97.48,36.975Z" style="fill:#522881;fill-rule:nonzero;"/><path d="M736.142,1223.54c-59.384,-0 -112.606,-10.365 -159.666,-31.093c-47.059,-20.729 -84.314,-50.981 -111.765,-90.757c-27.452,-39.777 -41.177,-88.236 -41.177,-145.38c-0,-57.143 13.725,-105.043 41.177,-143.699c27.451,-38.656 65.546,-67.788 114.286,-87.396c48.74,-19.608 104.483,-29.412 167.229,-29.412l228.574,0l-0,-47.059c-0,-39.216 -12.325,-71.429 -36.975,-96.64c-24.651,-25.21 -63.867,-37.815 -117.649,-37.815c-52.661,-0 -91.877,12.045 -117.648,36.135c-25.77,24.09 -42.577,55.182 -50.421,93.278l-194.96,-65.547c13.446,-42.577 35.015,-81.513 64.707,-116.808c29.692,-35.294 69.468,-63.866 119.329,-85.715c49.86,-21.849 110.645,-32.773 182.355,-32.773c109.805,-0 196.64,27.451 260.507,82.353c63.866,54.903 95.799,134.455 95.799,238.658l-0,310.928c-0,33.613 15.686,50.42 47.059,50.42l67.228,0l-0,174.792l-141.178,0c-41.457,0 -75.631,-10.084 -102.522,-30.252c-26.891,-20.169 -40.337,-47.06 -40.337,-80.673l0,-1.681l-31.933,-0c-4.482,13.445 -14.566,31.093 -30.252,52.942c-15.687,21.849 -40.337,41.176 -73.951,57.983c-33.613,16.807 -79.552,25.211 -137.816,25.211Zm36.975,-171.431c59.384,0 107.844,-16.526 145.38,-49.58c37.535,-33.053 56.303,-77.032 56.303,-131.934l-0,-16.807l-213.448,0c-39.216,0 -70.029,8.404 -92.438,25.21c-22.409,16.807 -33.613,40.337 -33.613,70.589c-0,30.253 11.764,54.903 35.294,73.951c23.53,19.048 57.704,28.571 102.522,28.571Z" style="fill:#522881;fill-rule:nonzero;"/><rect x="1428.59" y="675.637" width="497.484" height="191.599" style="fill:#d3c6e1;fill-rule:nonzero;"/><path d="M2158.01,1536.15l-0,-1169.76l208.405,0l0,100.842l30.253,-0c19.048,-32.494 48.74,-61.346 89.076,-86.556c40.337,-25.21 98.04,-37.815 173.111,-37.815c67.228,-0 129.413,16.526 186.557,49.58c57.143,33.053 103.082,81.513 137.816,145.38c34.735,63.866 52.102,141.177 52.102,231.935l-0,26.891c-0,90.757 -17.367,168.069 -52.102,231.935c-34.734,63.866 -80.673,112.326 -137.816,145.379c-57.144,33.054 -119.329,49.581 -186.557,49.581c-50.42,-0 -92.718,-5.883 -126.892,-17.648c-34.174,-11.764 -61.625,-26.891 -82.354,-45.378c-20.728,-18.488 -37.255,-37.255 -49.58,-56.303l-30.252,-0l-0,431.937l-211.767,-0Zm436.979,-497.484c66.107,-0 120.73,-21.009 163.867,-63.026c43.138,-42.017 64.707,-103.362 64.707,-184.035l-0,-16.807c-0,-80.673 -21.849,-142.019 -65.547,-184.036c-43.698,-42.017 -98.04,-63.026 -163.027,-63.026c-64.987,0 -119.329,21.009 -163.027,63.026c-43.698,42.017 -65.547,103.363 -65.547,184.036l0,16.807c0,80.673 21.849,142.018 65.547,184.035c43.698,42.017 98.04,63.026 163.027,63.026Z" style="fill:#d3c6e1;fill-rule:nonzero;"/><path d="M3610.12,1223.54c-82.914,-0 -156.024,-17.648 -219.33,-52.942c-63.306,-35.294 -112.606,-85.155 -147.9,-149.581c-35.295,-64.427 -52.942,-140.338 -52.942,-227.734l0,-20.168c0,-87.396 17.367,-163.307 52.101,-227.733c34.735,-64.427 83.475,-114.287 146.22,-149.582c62.746,-35.294 135.576,-52.941 218.49,-52.941c81.793,-0 152.943,18.207 213.447,54.622c60.505,36.415 107.565,86.836 141.178,151.262c33.614,64.426 50.421,139.217 50.421,224.372l0,72.27l-606.729,-0c2.241,57.143 23.53,103.642 63.866,139.497c40.337,35.855 89.637,53.782 147.901,53.782c59.384,-0 103.082,-12.885 131.094,-38.656c28.011,-25.771 49.3,-54.342 63.866,-85.715l173.111,90.757c-15.686,29.132 -38.376,60.785 -68.068,94.959c-29.692,34.174 -69.188,63.306 -118.488,87.396c-49.301,24.09 -112.046,36.135 -188.238,36.135Zm-203.363,-536.14l389.92,-0c-4.482,-48.18 -23.81,-86.836 -57.984,-115.968c-34.174,-29.132 -78.712,-43.698 -133.615,-43.698c-57.143,0 -102.522,14.566 -136.136,43.698c-33.613,29.132 -54.342,67.788 -62.185,115.968Z" style="fill:#d3c6e1;fill-rule:nonzero;"/><path d="M4536.18,1223.54c-66.107,-0 -128.012,-16.527 -185.716,-49.581c-57.704,-33.053 -103.923,-81.513 -138.657,-145.379c-34.734,-63.866 -52.101,-141.178 -52.101,-231.935l-0,-26.891c-0,-90.758 17.367,-168.069 52.101,-231.935c34.734,-63.867 80.673,-112.327 137.817,-145.38c57.143,-33.054 119.328,-49.58 186.556,-49.58c50.421,-0 92.718,5.882 126.892,17.647c34.174,11.765 61.905,26.611 83.194,44.538c21.289,17.927 37.536,36.975 48.74,57.144l30.253,-0l-0,-438.66l211.766,-0l0,1176.48l-208.405,0l-0,-100.841l-30.252,-0c-19.048,31.373 -48.46,59.944 -88.237,85.715c-39.776,25.77 -97.76,38.656 -173.951,38.656Zm63.866,-184.876c64.987,-0 119.329,-21.009 163.027,-63.026c43.698,-42.017 65.547,-103.362 65.547,-184.035l-0,-16.807c-0,-80.673 -21.569,-142.019 -64.707,-184.036c-43.137,-42.017 -97.76,-63.026 -163.867,-63.026c-64.986,0 -119.329,21.009 -163.027,63.026c-43.698,42.017 -65.546,103.363 -65.546,184.036l-0,16.807c-0,80.673 21.848,142.018 65.546,184.035c43.698,42.017 98.041,63.026 163.027,63.026Z" style="fill:#d3c6e1;fill-rule:nonzero;"/><path d="M5272.32,1200.01l-0,-833.622l211.767,0l-0,833.622l-211.767,0Zm105.883,-931.102c-38.095,0 -70.309,-12.325 -96.639,-36.975c-26.331,-24.65 -39.497,-57.143 -39.497,-97.48c0,-40.336 13.166,-72.83 39.497,-97.48c26.33,-24.65 58.544,-36.975 96.639,-36.975c39.216,0 71.71,12.325 97.48,36.975c25.771,24.65 38.656,57.144 38.656,97.48c0,40.337 -12.885,72.83 -38.656,97.48c-25.77,24.65 -58.264,36.975 -97.48,36.975Z" style="fill:#d3c6e1;fill-rule:nonzero;"/><path d="M5978.21,1223.54c-59.384,-0 -112.606,-10.365 -159.665,-31.093c-47.059,-20.729 -84.315,-50.981 -111.766,-90.757c-27.451,-39.777 -41.177,-88.236 -41.177,-145.38c0,-57.143 13.726,-105.043 41.177,-143.699c27.451,-38.656 65.547,-67.788 114.287,-87.396c48.74,-19.608 104.483,-29.412 167.228,-29.412l228.574,0l0,-47.059c0,-39.216 -12.325,-71.429 -36.975,-96.64c-24.65,-25.21 -63.866,-37.815 -117.648,-37.815c-52.662,-0 -91.878,12.045 -117.648,36.135c-25.771,24.09 -42.578,55.182 -50.421,93.278l-194.96,-65.547c13.445,-42.577 35.014,-81.513 64.706,-116.808c29.693,-35.294 69.469,-63.866 119.329,-85.715c49.861,-21.849 110.646,-32.773 182.355,-32.773c109.805,-0 196.641,27.451 260.507,82.353c63.866,54.903 95.799,134.455 95.799,238.658l0,310.928c0,33.613 15.687,50.42 47.06,50.42l67.227,0l0,174.792l-141.178,0c-41.457,0 -75.631,-10.084 -102.522,-30.252c-26.891,-20.169 -40.336,-47.06 -40.336,-80.673l-0,-1.681l-31.933,-0c-4.482,13.445 -14.566,31.093 -30.253,52.942c-15.686,21.849 -40.336,41.176 -73.95,57.983c-33.614,16.807 -79.553,25.211 -137.817,25.211Zm36.976,-171.431c59.384,0 107.844,-16.526 145.379,-49.58c37.536,-33.053 56.303,-77.032 56.303,-131.934l0,-16.807l-213.447,0c-39.216,0 -70.029,8.404 -92.438,25.21c-22.409,16.807 -33.614,40.337 -33.614,70.589c-0,30.253 11.765,54.903 35.294,73.951c23.53,19.048 57.704,28.571 102.523,28.571Z" style="fill:#d3c6e1;fill-rule:nonzero;"/><path d="M6824.44,1223.54c-45.378,-0 -83.474,-14.978 -114.287,-44.932c-30.812,-29.955 -46.218,-68.331 -46.218,-115.128c-0,-46.796 15.406,-85.041 46.218,-114.733c30.813,-29.692 68.909,-44.538 114.287,-44.538c45.379,-0 83.194,14.977 113.447,44.932c30.252,29.955 45.378,68.33 45.378,115.127c0,46.797 -15.126,85.041 -45.378,114.733c-30.253,29.693 -68.068,44.539 -113.447,44.539Z" style="fill:#522881;fill-rule:nonzero;"/></g></svg>